<svg id="Layer_1" data-name="Layer 1" xmlns="http://www.w3.org/2000/svg" width="348.09" height="216.12" viewBox="0 0 348.09 216.12"><defs><style>.cls-1,.cls-3,.cls-6{fill:#fff;}.cls-1,.cls-3{stroke:#556976;stroke-width:8px;}.cls-1{stroke-linecap:round;stroke-linejoin:round;}.cls-2{fill:#c3e2f7;}.cls-3{stroke-miterlimit:10;}.cls-4{fill:#6cb0e0;}.cls-5{fill:#ba202d;}</style></defs><title>recogida_tienda</title><polygon class="cls-1" points="80.42 118.29 80.42 211.63 323.5 211.63 323.5 105.03 80.42 105.03 80.42 118.29"/><rect class="cls-1" x="165.61" y="132.72" width="85.74" height="79.4"/><polygon class="cls-1" points="4.82 152.74 129.84 152.74 129.84 142.62 172.87 170.46 129.84 198.29 129.84 189.69 4 190.97 16.46 170.46 4.82 152.74"/><path class="cls-1" d="M90.1,34.16H322.23l22,56.11c5,42.87-39,21.43-39,21.43-15.59,15.1-33.61-.49-33.61-.49-16.61,15.1-30.85-.49-30.85-.49-18.84,14.61-33.45-.49-33.45-.49-16.08,15.1-33,.49-33,.49-18.12,15.59-31.76-1-31.76-1-16.08,19-33.13,1.46-33.13,1.46C66.53,135.73,73.83,87.83,73.83,87.83Z" transform="translate(-0.5 0.65)"/><path class="cls-2" d="M116,34.16" transform="translate(-0.5 0.65)"/><path class="cls-2" d="M109.39,108.29V38.62l35,.36V107.2C126.88,124.25,109.39,108.29,109.39,108.29Z" transform="translate(-0.5 0.65)"/><path class="cls-2" d="M174,107.81V38.15l35,.36v68.22C191.49,123.78,174,107.81,174,107.81Z" transform="translate(-0.5 0.65)"/><path class="cls-2" d="M238.62,108.29V38.62l35,.36V107.2C256.11,124.25,238.62,108.29,238.62,108.29Z" transform="translate(-0.5 0.65)"/><path class="cls-2" d="M305.2,107.81V38.15l15.14.16,19.38,53.38C346.69,128.21,305.2,107.81,305.2,107.81Z" transform="translate(-0.5 0.65)"/><rect class="cls-1" x="191.75" y="54.4" width="21.39" height="24.28"/><rect class="cls-3" x="151.37" y="4" width="101.18" height="50.4"/><circle class="cls-4" cx="171.25" cy="28.23" r="10.7"/><circle class="cls-5" cx="202.45" cy="28.23" r="10.7"/><circle class="cls-5" cx="232.61" cy="28.23" r="10.7"/><circle class="cls-6" cx="232.61" cy="28.56" r="3.54"/></svg>